<!DOCTYPE svg PUBLIC "-//W3C//DTD SVG 1.1//EN" "http://www.w3.org/Graphics/SVG/1.1/DTD/svg11.dtd">
<!-- Uploaded to: SVG Repo, www.svgrepo.com, Transformed by: SVG Repo Mixer Tools -->
<svg width="256px" height="256px" viewBox="-460 -460 2920.00 2920.00" xmlns="http://www.w3.org/2000/svg" fill="#000000" transform="rotate(0)" stroke="#000000">
<g id="SVGRepo_bgCarrier" stroke-width="0">
<path transform="translate(-460, -460), scale(91.25)" d="M16,28.389674454927444C18.019648482616333,28.958896156701453,20.07041687422054,30.24658367536099,22.09094057589506,29.680476521125634C24.072747573574098,29.12521695214854,25.295008502428857,27.121749254210602,26.49454379247331,25.44932967380376C27.630197588094468,23.865975136322998,28.079641596115007,21.95922155647202,28.897478864348038,20.190644914774296C29.80820174819603,18.2212027262163,31.56602947153191,16.526960446783725,31.62351732124126,14.35790215979089C31.68113743771468,12.18385335180721,30.551581555929076,10.085060717978141,29.21069422316981,8.372802134071081C27.921331568493642,6.726338468331595,25.84957889334821,6.000581125939753,24.13792572398318,4.7991061633722705C22.45083422284565,3.6148719771153157,21.18535697921845,1.3790189445815009,19.12588117004628,1.2938853287485568C16.976006985619044,1.205014868561039,15.651718994977866,4.027426067971284,13.525933608384292,4.360432761156018C11.23132343923176,4.719886048113643,8.740877724286726,2.0799206246402693,6.726591452391682,3.2362481339290614C4.81200651008667,4.335340784535546,5.515637689564313,7.417393282728405,4.657559982962452,9.451439202896179C3.905150918698609,11.235000966228679,1.912944833847968,12.589715175612133,1.9644293096945002,14.524802076078087C2.0170878488189676,16.504017122593808,4.555980305750452,17.652925911047028,4.927508277067261,19.597670647156672C5.37019893631945,21.91491294321916,2.6852068646272276,24.81414526952188,4.264872242413103,26.566356493283074C5.845114535413993,28.31920764834182,8.935228919329134,26.267575181027695,11.267259599703085,26.629908980409006C12.948782994553078,26.89117173545426,14.362110902321021,27.928048569273244,16,28.389674454927444" fill="#484776" strokewidth="0"/>
</g>
<g id="SVGRepo_tracerCarrier" stroke-linecap="round" stroke-linejoin="round"/>
<g id="SVGRepo_iconCarrier">
<defs>
<linearGradient id="a" x1="75" x2="1925" gradientUnits="userSpaceOnUse">
<stop stop-color="#f2ebff"/>
<stop offset=".59" stop-color="#ddb3ff"/>
<stop offset="1" stop-color="#8d4cdc"/>
</linearGradient>
</defs>
<path d="M1297.93 53.81c-131.41 77.2-209.22 216.61-209.22 363.62 0 77.2 31 155 69.81 224.41 31 62 46.2 170.21-62 224.41-77.21 46.2-178.22 15.4-224.42-62-46.21-62-100.41-124-170.22-170.21-131.41-77.2-286.43-77.2-417.85 0S75 851 75 998.05s77.21 286.41 209 363.82c131.41 77.2 286.43 77.2 417.85 0 69.81-38.8 124-100.4 162.42-170.21 31-54.2 116.21-124 224.42-62 77.21 46.2 100.41 147.21 62 224.41-38.8 69.8-62 147.21-62 224.41 0 147.21 77.21 286.41 209.22 363.62 131.41 77.2 286.43 77.2 417.85 0S1925 1725.49 1925 1578.48s-77.41-286.41-209.22-363.82c-69.81-38.8-147.22-54.2-232.23-54.2-69.81 0-162.42-46.2-162.42-162.41 0-93 69.81-162.41 162.42-162.41 77.21 0 162.42-15.4 232.23-54.2C1847.19 704.24 1925 564.83 1925 417.83s-77.41-286.41-209.22-363.62c-62-38.8-139.22-54.2-209-54.2-69.41-.4-147.22 15.4-208.82 53.8" transform="translate(-75)" fill="url(#a)"/>
</g>
</svg>